<svg width="375" height="360" viewBox="0 0 375 360" fill="none" xmlns="http://www.w3.org/2000/svg">
<rect width="375" height="360" fill="#1E1E1E"/>
<g id="HomePage" clip-path="url(#clip0_0_1)">
<rect width="1440" height="4542" transform="translate(-893 -3417)" fill="white"/>
<g id="Group 81">
<rect id="Rectangle 24" x="-784" width="1221" height="379.258" rx="8" fill="#F2BF62"/>
<g id="Mask Group">
<path id="Rectangle 26" d="M-784 8.00001C-784 3.58173 -780.418 0 -776 0H367.897C372.316 0 375.897 3.58172 375.897 8V371.258C375.897 375.676 372.316 379.258 367.897 379.258H-776C-780.418 379.258 -784 375.676 -784 371.258V8.00001Z" fill="url(#paint0_linear_0_1)"/>
<mask id="mask0_0_1" style="mask-type:alpha" maskUnits="userSpaceOnUse" x="-784" y="0" width="1159" height="360">
<rect id="Rectangle 25" x="-784" width="1159" height="360" rx="8" fill="#00B8D9"/>
</mask>
<g mask="url(#mask0_0_1)">
<g id="Group 42" opacity="0.07">
<circle id="Ellipse 10" cx="430.679" cy="366.616" r="427.826" fill="#FF922F" stroke="white" stroke-width="4"/>
<circle id="Ellipse 15" cx="429.636" cy="365.573" r="360.013" fill="#FF922F" stroke="white" stroke-width="4"/>
<circle id="Ellipse 14" cx="430.679" cy="366.616" r="298.461" fill="#FF922F" stroke="white" stroke-width="4"/>
<circle id="Ellipse 13" cx="430.679" cy="366.616" r="240.038" fill="#FF922F" stroke="white" stroke-width="4"/>
<circle id="Ellipse 12" cx="430.679" cy="366.616" r="179.528" fill="#FF922F" stroke="white" stroke-width="4"/>
<circle id="Ellipse 11" cx="430.68" cy="366.616" r="134.443" fill="#FF922F" stroke="white" stroke-width="4"/>
<circle id="Ellipse 9" cx="430.679" cy="366.616" r="75.1199" stroke="white" stroke-width="4"/>
</g>
</g>
</g>
<g id="Group 44">
<g id="Rectangle 27" filter="url(#filter0_f_0_1)">
<rect x="126.219" y="200.164" width="214.913" height="48.4607" rx="4" fill="#FB9C46"/>
</g>
<rect id="Rectangle 28" x="82" y="153" width="259" height="60" rx="4" fill="white"/>
<path id="Get your free lessons now" d="M112.866 182.192C112.61 181.723 112.258 181.365 111.81 181.12C111.362 180.875 110.839 180.752 110.242 180.752C109.581 180.752 108.994 180.901 108.482 181.2C107.97 181.499 107.57 181.925 107.282 182.48C106.994 183.035 106.85 183.675 106.85 184.4C106.85 185.147 106.994 185.797 107.282 186.352C107.581 186.907 107.991 187.333 108.514 187.632C109.037 187.931 109.645 188.08 110.338 188.08C111.191 188.08 111.89 187.856 112.434 187.408C112.978 186.949 113.335 186.315 113.506 185.504H109.666V183.792H115.714V185.744C115.565 186.523 115.245 187.243 114.754 187.904C114.263 188.565 113.629 189.099 112.85 189.504C112.082 189.899 111.218 190.096 110.258 190.096C109.181 190.096 108.205 189.856 107.33 189.376C106.466 188.885 105.783 188.208 105.282 187.344C104.791 186.48 104.546 185.499 104.546 184.4C104.546 183.301 104.791 182.32 105.282 181.456C105.783 180.581 106.466 179.904 107.33 179.424C108.205 178.933 109.175 178.688 110.242 178.688C111.501 178.688 112.594 178.997 113.522 179.616C114.45 180.224 115.09 181.083 115.442 182.192H112.866ZM125.911 185.376C125.911 185.696 125.89 185.984 125.847 186.24H119.367C119.421 186.88 119.645 187.381 120.039 187.744C120.434 188.107 120.919 188.288 121.495 188.288C122.327 188.288 122.919 187.931 123.271 187.216H125.687C125.431 188.069 124.941 188.773 124.215 189.328C123.49 189.872 122.599 190.144 121.543 190.144C120.69 190.144 119.922 189.957 119.239 189.584C118.567 189.2 118.039 188.661 117.655 187.968C117.282 187.275 117.095 186.475 117.095 185.568C117.095 184.651 117.282 183.845 117.655 183.152C118.029 182.459 118.551 181.925 119.223 181.552C119.895 181.179 120.669 180.992 121.543 180.992C122.386 180.992 123.138 181.173 123.799 181.536C124.471 181.899 124.989 182.416 125.351 183.088C125.725 183.749 125.911 184.512 125.911 185.376ZM123.591 184.736C123.581 184.16 123.373 183.701 122.967 183.36C122.562 183.008 122.066 182.832 121.479 182.832C120.925 182.832 120.455 183.003 120.071 183.344C119.698 183.675 119.469 184.139 119.383 184.736H123.591ZM130.454 182.976V187.264C130.454 187.563 130.524 187.781 130.662 187.92C130.812 188.048 131.057 188.112 131.398 188.112H132.438V190H131.03C129.142 190 128.198 189.083 128.198 187.248V182.976H127.142V181.136H128.198V178.944H130.454V181.136H132.438V182.976H130.454ZM146.942 181.136L141.454 194.192H139.07L140.99 189.776L137.438 181.136H139.95L142.238 187.328L144.558 181.136H146.942ZM152.385 190.144C151.532 190.144 150.764 189.957 150.081 189.584C149.399 189.2 148.86 188.661 148.465 187.968C148.081 187.275 147.889 186.475 147.889 185.568C147.889 184.661 148.087 183.861 148.481 183.168C148.887 182.475 149.436 181.941 150.129 181.568C150.823 181.184 151.596 180.992 152.449 180.992C153.303 180.992 154.076 181.184 154.769 181.568C155.463 181.941 156.007 182.475 156.401 183.168C156.807 183.861 157.009 184.661 157.009 185.568C157.009 186.475 156.801 187.275 156.385 187.968C155.98 188.661 155.425 189.2 154.721 189.584C154.028 189.957 153.249 190.144 152.385 190.144ZM152.385 188.192C152.791 188.192 153.169 188.096 153.521 187.904C153.884 187.701 154.172 187.403 154.385 187.008C154.599 186.613 154.705 186.133 154.705 185.568C154.705 184.725 154.481 184.08 154.033 183.632C153.596 183.173 153.057 182.944 152.417 182.944C151.777 182.944 151.239 183.173 150.801 183.632C150.375 184.08 150.161 184.725 150.161 185.568C150.161 186.411 150.369 187.061 150.785 187.52C151.212 187.968 151.745 188.192 152.385 188.192ZM167.32 181.136V190H165.064V188.88C164.776 189.264 164.398 189.568 163.928 189.792C163.47 190.005 162.968 190.112 162.424 190.112C161.731 190.112 161.118 189.968 160.584 189.68C160.051 189.381 159.63 188.949 159.32 188.384C159.022 187.808 158.872 187.125 158.872 186.336V181.136H161.112V186.016C161.112 186.72 161.288 187.264 161.64 187.648C161.992 188.021 162.472 188.208 163.08 188.208C163.699 188.208 164.184 188.021 164.536 187.648C164.888 187.264 165.064 186.72 165.064 186.016V181.136H167.32ZM172.071 182.512C172.359 182.043 172.732 181.675 173.191 181.408C173.66 181.141 174.193 181.008 174.791 181.008V183.36H174.199C173.495 183.36 172.961 183.525 172.599 183.856C172.247 184.187 172.071 184.763 172.071 185.584V190H169.831V181.136H172.071V182.512ZM184.776 182.976H183.224V190H180.952V182.976H179.944V181.136H180.952V180.688C180.952 179.6 181.261 178.8 181.88 178.288C182.498 177.776 183.432 177.536 184.68 177.568V179.456C184.136 179.445 183.757 179.536 183.544 179.728C183.33 179.92 183.224 180.267 183.224 180.768V181.136H184.776V182.976ZM188.767 182.512C189.055 182.043 189.429 181.675 189.887 181.408C190.357 181.141 190.89 181.008 191.487 181.008V183.36H190.895C190.191 183.36 189.658 183.525 189.295 183.856C188.943 184.187 188.767 184.763 188.767 185.584V190H186.527V181.136H188.767V182.512ZM201.536 185.376C201.536 185.696 201.515 185.984 201.472 186.24H194.992C195.046 186.88 195.27 187.381 195.664 187.744C196.059 188.107 196.544 188.288 197.12 188.288C197.952 188.288 198.544 187.931 198.896 187.216H201.312C201.056 188.069 200.566 188.773 199.84 189.328C199.115 189.872 198.224 190.144 197.168 190.144C196.315 190.144 195.547 189.957 194.864 189.584C194.192 189.2 193.664 188.661 193.28 187.968C192.907 187.275 192.72 186.475 192.72 185.568C192.72 184.651 192.907 183.845 193.28 183.152C193.654 182.459 194.176 181.925 194.848 181.552C195.52 181.179 196.294 180.992 197.168 180.992C198.011 180.992 198.763 181.173 199.424 181.536C200.096 181.899 200.614 182.416 200.976 183.088C201.35 183.749 201.536 184.512 201.536 185.376ZM199.216 184.736C199.206 184.16 198.998 183.701 198.592 183.36C198.187 183.008 197.691 182.832 197.104 182.832C196.55 182.832 196.08 183.003 195.696 183.344C195.323 183.675 195.094 184.139 195.008 184.736H199.216ZM211.711 185.376C211.711 185.696 211.69 185.984 211.647 186.24H205.167C205.221 186.88 205.445 187.381 205.839 187.744C206.234 188.107 206.719 188.288 207.295 188.288C208.127 188.288 208.719 187.931 209.071 187.216H211.487C211.231 188.069 210.741 188.773 210.015 189.328C209.29 189.872 208.399 190.144 207.343 190.144C206.49 190.144 205.722 189.957 205.039 189.584C204.367 189.2 203.839 188.661 203.455 187.968C203.082 187.275 202.895 186.475 202.895 185.568C202.895 184.651 203.082 183.845 203.455 183.152C203.829 182.459 204.351 181.925 205.023 181.552C205.695 181.179 206.469 180.992 207.343 180.992C208.186 180.992 208.938 181.173 209.599 181.536C210.271 181.899 210.789 182.416 211.151 183.088C211.525 183.749 211.711 184.512 211.711 185.376ZM209.391 184.736C209.381 184.16 209.173 183.701 208.767 183.36C208.362 183.008 207.866 182.832 207.279 182.832C206.725 182.832 206.255 183.003 205.871 183.344C205.498 183.675 205.269 184.139 205.183 184.736H209.391ZM219.999 178.16V190H217.759V178.16H219.999ZM230.752 185.376C230.752 185.696 230.73 185.984 230.688 186.24H224.208C224.261 186.88 224.485 187.381 224.88 187.744C225.274 188.107 225.76 188.288 226.336 188.288C227.168 188.288 227.76 187.931 228.112 187.216H230.528C230.272 188.069 229.781 188.773 229.056 189.328C228.33 189.872 227.44 190.144 226.384 190.144C225.53 190.144 224.762 189.957 224.08 189.584C223.408 189.2 222.88 188.661 222.496 187.968C222.122 187.275 221.936 186.475 221.936 185.568C221.936 184.651 222.122 183.845 222.496 183.152C222.869 182.459 223.392 181.925 224.064 181.552C224.736 181.179 225.509 180.992 226.384 180.992C227.226 180.992 227.978 181.173 228.64 181.536C229.312 181.899 229.829 182.416 230.192 183.088C230.565 183.749 230.752 184.512 230.752 185.376ZM228.432 184.736C228.421 184.16 228.213 183.701 227.808 183.36C227.402 183.008 226.906 182.832 226.32 182.832C225.765 182.832 225.296 183.003 224.912 183.344C224.538 183.675 224.309 184.139 224.224 184.736H228.432ZM236.079 190.144C235.353 190.144 234.703 190.016 234.127 189.76C233.551 189.493 233.092 189.136 232.751 188.688C232.42 188.24 232.239 187.744 232.207 187.2H234.463C234.505 187.541 234.671 187.824 234.959 188.048C235.257 188.272 235.625 188.384 236.063 188.384C236.489 188.384 236.82 188.299 237.055 188.128C237.3 187.957 237.423 187.739 237.423 187.472C237.423 187.184 237.273 186.971 236.975 186.832C236.687 186.683 236.223 186.523 235.583 186.352C234.921 186.192 234.377 186.027 233.951 185.856C233.535 185.685 233.172 185.424 232.863 185.072C232.564 184.72 232.415 184.245 232.415 183.648C232.415 183.157 232.553 182.709 232.831 182.304C233.119 181.899 233.524 181.579 234.047 181.344C234.58 181.109 235.204 180.992 235.919 180.992C236.975 180.992 237.817 181.259 238.447 181.792C239.076 182.315 239.423 183.024 239.487 183.92H237.343C237.311 183.568 237.161 183.291 236.895 183.088C236.639 182.875 236.292 182.768 235.855 182.768C235.449 182.768 235.135 182.843 234.911 182.992C234.697 183.141 234.591 183.349 234.591 183.616C234.591 183.915 234.74 184.144 235.039 184.304C235.337 184.453 235.801 184.608 236.431 184.768C237.071 184.928 237.599 185.093 238.015 185.264C238.431 185.435 238.788 185.701 239.087 186.064C239.396 186.416 239.556 186.885 239.567 187.472C239.567 187.984 239.423 188.443 239.135 188.848C238.857 189.253 238.452 189.573 237.919 189.808C237.396 190.032 236.783 190.144 236.079 190.144ZM245.098 190.144C244.372 190.144 243.722 190.016 243.146 189.76C242.57 189.493 242.111 189.136 241.77 188.688C241.439 188.24 241.258 187.744 241.226 187.2H243.482C243.524 187.541 243.69 187.824 243.978 188.048C244.276 188.272 244.644 188.384 245.082 188.384C245.508 188.384 245.839 188.299 246.074 188.128C246.319 187.957 246.442 187.739 246.442 187.472C246.442 187.184 246.292 186.971 245.994 186.832C245.706 186.683 245.242 186.523 244.602 186.352C243.94 186.192 243.396 186.027 242.97 185.856C242.554 185.685 242.191 185.424 241.882 185.072C241.583 184.72 241.434 184.245 241.434 183.648C241.434 183.157 241.572 182.709 241.85 182.304C242.138 181.899 242.543 181.579 243.066 181.344C243.599 181.109 244.223 180.992 244.938 180.992C245.994 180.992 246.836 181.259 247.466 181.792C248.095 182.315 248.442 183.024 248.506 183.92H246.362C246.33 183.568 246.18 183.291 245.914 183.088C245.658 182.875 245.311 182.768 244.874 182.768C244.468 182.768 244.154 182.843 243.93 182.992C243.716 183.141 243.61 183.349 243.61 183.616C243.61 183.915 243.759 184.144 244.058 184.304C244.356 184.453 244.82 184.608 245.45 184.768C246.09 184.928 246.618 185.093 247.034 185.264C247.45 185.435 247.807 185.701 248.106 186.064C248.415 186.416 248.575 186.885 248.586 187.472C248.586 187.984 248.442 188.443 248.154 188.848C247.876 189.253 247.471 189.573 246.938 189.808C246.415 190.032 245.802 190.144 245.098 190.144ZM254.66 190.144C253.807 190.144 253.039 189.957 252.356 189.584C251.674 189.2 251.135 188.661 250.74 187.968C250.356 187.275 250.164 186.475 250.164 185.568C250.164 184.661 250.362 183.861 250.756 183.168C251.162 182.475 251.711 181.941 252.404 181.568C253.098 181.184 253.871 180.992 254.724 180.992C255.578 180.992 256.351 181.184 257.044 181.568C257.738 181.941 258.282 182.475 258.676 183.168C259.082 183.861 259.284 184.661 259.284 185.568C259.284 186.475 259.076 187.275 258.66 187.968C258.255 188.661 257.7 189.2 256.996 189.584C256.303 189.957 255.524 190.144 254.66 190.144ZM254.66 188.192C255.066 188.192 255.444 188.096 255.796 187.904C256.159 187.701 256.447 187.403 256.66 187.008C256.874 186.613 256.98 186.133 256.98 185.568C256.98 184.725 256.756 184.08 256.308 183.632C255.871 183.173 255.332 182.944 254.692 182.944C254.052 182.944 253.514 183.173 253.076 183.632C252.65 184.08 252.436 184.725 252.436 185.568C252.436 186.411 252.644 187.061 253.06 187.52C253.487 187.968 254.02 188.192 254.66 188.192ZM266.139 181.008C267.195 181.008 268.049 181.344 268.699 182.016C269.35 182.677 269.675 183.605 269.675 184.8V190H267.435V185.104C267.435 184.4 267.259 183.861 266.907 183.488C266.555 183.104 266.075 182.912 265.467 182.912C264.849 182.912 264.358 183.104 263.995 183.488C263.643 183.861 263.467 184.4 263.467 185.104V190H261.227V181.136H263.467V182.24C263.766 181.856 264.145 181.557 264.603 181.344C265.073 181.12 265.585 181.008 266.139 181.008ZM275.498 190.144C274.772 190.144 274.122 190.016 273.546 189.76C272.97 189.493 272.511 189.136 272.17 188.688C271.839 188.24 271.658 187.744 271.626 187.2H273.882C273.924 187.541 274.09 187.824 274.378 188.048C274.676 188.272 275.044 188.384 275.482 188.384C275.908 188.384 276.239 188.299 276.474 188.128C276.719 187.957 276.842 187.739 276.842 187.472C276.842 187.184 276.692 186.971 276.394 186.832C276.106 186.683 275.642 186.523 275.002 186.352C274.34 186.192 273.796 186.027 273.37 185.856C272.954 185.685 272.591 185.424 272.282 185.072C271.983 184.72 271.834 184.245 271.834 183.648C271.834 183.157 271.972 182.709 272.25 182.304C272.538 181.899 272.943 181.579 273.466 181.344C273.999 181.109 274.623 180.992 275.338 180.992C276.394 180.992 277.236 181.259 277.866 181.792C278.495 182.315 278.842 183.024 278.906 183.92H276.762C276.73 183.568 276.58 183.291 276.314 183.088C276.058 182.875 275.711 182.768 275.274 182.768C274.868 182.768 274.554 182.843 274.33 182.992C274.116 183.141 274.01 183.349 274.01 183.616C274.01 183.915 274.159 184.144 274.458 184.304C274.756 184.453 275.22 184.608 275.85 184.768C276.49 184.928 277.018 185.093 277.434 185.264C277.85 185.435 278.207 185.701 278.506 186.064C278.815 186.416 278.975 186.885 278.986 187.472C278.986 187.984 278.842 188.443 278.554 188.848C278.276 189.253 277.871 189.573 277.338 189.808C276.815 190.032 276.202 190.144 275.498 190.144ZM290.149 181.008C291.205 181.008 292.058 181.344 292.709 182.016C293.359 182.677 293.685 183.605 293.685 184.8V190H291.445V185.104C291.445 184.4 291.269 183.861 290.917 183.488C290.565 183.104 290.085 182.912 289.477 182.912C288.858 182.912 288.367 183.104 288.005 183.488C287.653 183.861 287.477 184.4 287.477 185.104V190H285.237V181.136H287.477V182.24C287.775 181.856 288.154 181.557 288.613 181.344C289.082 181.12 289.594 181.008 290.149 181.008ZM300.051 190.144C299.198 190.144 298.43 189.957 297.747 189.584C297.064 189.2 296.526 188.661 296.131 187.968C295.747 187.275 295.555 186.475 295.555 185.568C295.555 184.661 295.752 183.861 296.147 183.168C296.552 182.475 297.102 181.941 297.795 181.568C298.488 181.184 299.262 180.992 300.115 180.992C300.968 180.992 301.742 181.184 302.435 181.568C303.128 181.941 303.672 182.475 304.067 183.168C304.472 183.861 304.675 184.661 304.675 185.568C304.675 186.475 304.467 187.275 304.051 187.968C303.646 188.661 303.091 189.2 302.387 189.584C301.694 189.957 300.915 190.144 300.051 190.144ZM300.051 188.192C300.456 188.192 300.835 188.096 301.187 187.904C301.55 187.701 301.838 187.403 302.051 187.008C302.264 186.613 302.371 186.133 302.371 185.568C302.371 184.725 302.147 184.08 301.699 183.632C301.262 183.173 300.723 182.944 300.083 182.944C299.443 182.944 298.904 183.173 298.467 183.632C298.04 184.08 297.827 184.725 297.827 185.568C297.827 186.411 298.035 187.061 298.451 187.52C298.878 187.968 299.411 188.192 300.051 188.192ZM318.906 181.136L316.314 190H313.898L312.282 183.808L310.666 190H308.234L305.626 181.136H307.898L309.466 187.888L311.162 181.136H313.53L315.194 187.872L316.762 181.136H318.906Z" fill="#FB9C46"/>
</g>
</g>
</g>
<defs>
<filter id="filter0_f_0_1" x="6.21924" y="80.1641" width="454.913" height="288.461" filterUnits="userSpaceOnUse" color-interpolation-filters="sRGB">
<feFlood flood-opacity="0" result="BackgroundImageFix"/>
<feBlend mode="normal" in="SourceGraphic" in2="BackgroundImageFix" result="shape"/>
<feGaussianBlur stdDeviation="60" result="effect1_foregroundBlur_0_1"/>
</filter>
<linearGradient id="paint0_linear_0_1" x1="375.897" y1="118.295" x2="-759.146" y2="116.006" gradientUnits="userSpaceOnUse">
<stop stop-color="#F1BF62"/>
<stop offset="1" stop-color="#FF912E"/>
</linearGradient>
<clipPath id="clip0_0_1">
<rect width="1440" height="4542" fill="white" transform="translate(-893 -3417)"/>
</clipPath>
</defs>
</svg>
